<?xml version="1.0" encoding="UTF-8"?>
<svg xmlns="http://www.w3.org/2000/svg" xmlns:xlink="http://www.w3.org/1999/xlink" width="48pt" height="48pt" viewBox="0 0 48 48" version="1.1">
<g id="surface9814357">
<path style=" stroke:none;fill-rule:nonzero;fill:rgb(20%,20%,20%);fill-opacity:1;" d="M 28.46875 32.828125 C 28.191406 32.941406 28 33 28 33 L 28 41 L 37 20 L 29.398438 2.300781 L 28.410156 0 C 28.214844 0.804688 28.082031 1.625 28.011719 2.449219 C 27.390625 2.648438 27.390625 4.289062 27.390625 4.289062 C 27.390625 4.28125 27.394531 4.273438 27.398438 4.269531 C 27.441406 4.21875 27.570312 4.050781 28.011719 3.46875 C 28.621094 2.648438 29 4 29 4 L 30 13 C 29.347656 13.863281 28.996094 14.917969 29 16 C 31 13 31.179688 15.730469 32 19 C 32.117188 19.390625 32.136719 19.800781 32.050781 20.199219 L 32.050781 20.210938 C 31.984375 20.480469 31.816406 20.710938 31.578125 20.859375 C 30.492188 21.238281 29.285156 20.992188 28.429688 20.21875 C 28.390625 20.117188 28.371094 20.007812 28.371094 19.898438 C 28.339844 18.898438 29.800781 18.101562 29.980469 18.011719 C 29.984375 18.003906 29.992188 18 30 18 L 29.980469 18 C 29.136719 18.03125 28.332031 18.371094 27.71875 18.949219 C 27.441406 19.195312 27.1875 19.46875 26.96875 19.769531 C 26.914062 19.84375 26.859375 19.921875 26.808594 20 L 26.800781 20.019531 C 26.796875 19.675781 26.859375 19.335938 26.988281 19.019531 L 27 19 C 26.980469 19.007812 26.960938 19.015625 26.941406 19.019531 C 26.53125 19.082031 26.199219 19.382812 26.089844 19.78125 C 26.058594 19.851562 26.039062 19.921875 26.011719 19.980469 C 26.011719 19.988281 26 19.988281 26 20 C 26 19.921875 25.992188 19.84375 25.96875 19.769531 C 25.960938 19.714844 25.941406 19.660156 25.910156 19.609375 C 25.839844 19.453125 25.746094 19.308594 25.628906 19.179688 C 24.949219 18.621094 24.308594 18.015625 23.710938 17.371094 C 22.898438 16.140625 23.710938 15.121094 25.550781 14.308594 C 25.738281 14.21875 25.921875 14.128906 26.089844 14.039062 L 26.101562 14.039062 C 27.347656 13.496094 28.023438 12.128906 27.691406 10.808594 C 27.601562 9.875 26.925781 9.101562 26.011719 8.890625 C 26.003906 8.890625 26 8.886719 26 8.878906 L 25.988281 8.878906 C 25.191406 8.640625 24.421875 8.699219 24.53125 8.589844 C 25.015625 8.113281 25.5625 7.703125 26.160156 7.371094 C 27 7 26.570312 6.351562 26.570312 6.351562 C 26 8 23.511719 7.371094 23.511719 7.371094 C 23.332031 6.882812 23.128906 6.40625 22.898438 5.941406 C 22.683594 5.304688 22.71875 4.609375 23 4 C 21.980469 4.410156 22.078125 5.53125 22.28125 6.351562 C 22.53125 7.089844 22.285156 7.90625 21.671875 8.390625 C 21.058594 8.800781 21.46875 9.820312 21.46875 9.820312 C 20 12 22 12 22 12 C 21.199219 11.199219 22.511719 10.019531 24.011719 9.789062 L 24.019531 9.789062 C 24.390625 9.734375 24.769531 9.746094 25.140625 9.820312 C 26.980469 10.21875 26.769531 12.878906 25.140625 13.289062 C 23.511719 13.699219 21.53125 14.679688 21.261719 16.351562 C 21.25 16.40625 21.242188 16.460938 21.238281 16.519531 L 21.238281 16.53125 C 21.199219 16.972656 21.222656 17.421875 21.308594 17.859375 C 21.371094 18.230469 21.460938 18.59375 21.578125 18.949219 C 21.609375 19.050781 21.640625 19.140625 21.671875 19.230469 C 21.464844 19.113281 21.234375 19.035156 21 19 C 21.09375 19.222656 21.15625 19.457031 21.179688 19.699219 C 21.191406 19.800781 21.199219 19.910156 21.199219 20.019531 C 21.199219 20.019531 19.21875 17.800781 18 18 C 18.011719 18 18.019531 18.003906 18.03125 18.011719 C 18.261719 18.140625 19.96875 19.078125 19.570312 20.21875 C 19.398438 20.699219 16.859375 21.671875 16.109375 20.558594 C 16.101562 20.550781 16.101562 20.550781 16.109375 20.539062 C 15.9375 20.273438 15.859375 19.957031 15.898438 19.640625 C 15.910156 19.425781 15.945312 19.210938 16 19 C 16.820312 15.738281 17 13.011719 18.988281 15.980469 C 18.996094 15.984375 19 15.992188 19 16 C 19.003906 14.917969 18.652344 13.863281 18 13 L 19 4 C 19 4 19.378906 2.648438 19.988281 3.46875 L 20.609375 4.289062 C 20.609375 4.289062 20.609375 2.648438 19.988281 2.449219 C 19.917969 1.625 19.785156 0.804688 19.589844 0 L 11 20 L 13.738281 26 L 14.570312 26.359375 L 14.648438 26.398438 L 15.671875 26.851562 L 16 27 L 14 27 L 20 41 L 20 33 C 20 33 19.808594 32.941406 19.519531 32.820312 C 19.425781 32.785156 19.332031 32.746094 19.238281 32.699219 C 18.257812 32.355469 17.464844 31.613281 17.050781 30.660156 L 17.050781 30.621094 C 16.996094 30.417969 16.980469 30.207031 17 30 C 17.199219 27.96875 19.589844 27.03125 19.011719 26.011719 L 19 26 L 19.011719 25.988281 C 19.199219 25.910156 21 25.148438 21 28 L 21.011719 27.988281 C 21.121094 27.890625 22.03125 27.078125 22.070312 26.371094 C 22.082031 26.242188 22.058594 26.113281 22 26 C 22.007812 26.007812 22.019531 26.015625 22.03125 26.019531 C 22.132812 26.074219 22.226562 26.140625 22.308594 26.21875 C 22.554688 26.429688 22.773438 26.667969 22.960938 26.929688 C 23.714844 28.148438 24.078125 29.570312 24 31 C 24 31.125 23.992188 31.246094 23.96875 31.371094 C 23.960938 31.457031 23.941406 31.542969 23.921875 31.628906 C 23.578125 32.929688 22.210938 33.199219 22.019531 34.660156 C 22.011719 34.761719 22 34.878906 22 35 L 22 35.128906 C 22.039062 37.050781 23 38.019531 23 39 C 23 40 21 41 21 42 C 21 43 24 48 24 48 C 24 48 28.410156 43 27 43 L 27 43.011719 C 26.667969 43.335938 26.320312 43.640625 25.960938 43.929688 L 25.941406 43.949219 C 25.402344 44.472656 24.730469 44.835938 24 45 C 23.472656 44.910156 23.019531 44.582031 22.769531 44.109375 L 22.761719 44.089844 C 22.679688 43.96875 22.609375 43.851562 22.539062 43.730469 C 22.230469 43.203125 22.046875 42.609375 22 42 L 22 41.960938 C 22.050781 40.980469 23.988281 39.988281 24 39.011719 L 24 39 C 24 38 23 36.410156 23 35 C 23 34.894531 23.03125 34.789062 23.089844 34.699219 C 23.191406 34.515625 23.328125 34.355469 23.488281 34.21875 L 23.519531 34.191406 C 24.238281 33.519531 25.53125 32.75 25.890625 31.628906 C 25.960938 31.425781 26 31.214844 26 31 C 26.101562 30.003906 26.101562 28.996094 26 28 C 26.042969 27.433594 26.257812 26.898438 26.621094 26.460938 C 26.730469 26.300781 26.855469 26.152344 26.988281 26.011719 L 27 26 C 26.992188 26.011719 26.988281 26.027344 26.988281 26.039062 C 26.914062 26.199219 26.902344 26.382812 26.960938 26.550781 C 27.167969 27.109375 27.519531 27.601562 27.980469 27.980469 L 28 28 C 28 26.621094 28.421875 26.089844 28.878906 25.910156 C 29.25 25.800781 29.648438 25.832031 30 26 C 29.46875 26.878906 30.460938 27.710938 30.859375 29.238281 C 30.929688 29.488281 30.976562 29.742188 31 30 C 31.148438 31.550781 29.351562 32.46875 28.46875 32.828125 Z M 22.78125 9.328125 L 22.800781 8.96875 L 23.269531 8.578125 L 23.660156 8.75 Z M 22.78125 9.328125 "/>
<path style=" stroke:none;fill-rule:nonzero;fill:rgb(92.54902%,94.117647%,94.509804%);fill-opacity:1;" d="M 37 20 L 28 41 L 28 33 C 28 33 28.191406 32.941406 28.46875 32.828125 C 29.351562 32.46875 31.148438 31.550781 31 30 C 30.976562 29.742188 30.929688 29.488281 30.859375 29.238281 L 33.285156 20 Z M 37 20 "/>
<path style=" stroke:none;fill-rule:nonzero;fill:rgb(92.54902%,94.117647%,94.509804%);fill-opacity:1;" d="M 26.839844 25.53125 L 24.589844 27.078125 L 22.589844 25.800781 L 22.945312 25.25 L 24.585938 26.25 L 26.5 24.941406 C 26.660156 25.105469 26.777344 25.308594 26.839844 25.53125 Z M 26.839844 25.53125 "/>
<path style=" stroke:none;fill-rule:nonzero;fill:rgb(92.54902%,94.117647%,94.509804%);fill-opacity:1;" d="M 21.679688 19.238281 C 21.679688 19.238281 21.640625 19.511719 21.609375 20.261719 C 21.578125 20.25 21.550781 20.242188 21.519531 20.230469 L 21.179688 19.699219 C 21.15625 19.457031 21.09375 19.222656 21 19 C 21.234375 19.035156 21.464844 19.113281 21.671875 19.230469 Z M 21.679688 19.238281 "/>
<path style=" stroke:none;fill-rule:nonzero;fill:rgb(0%,0%,0%);fill-opacity:1;" d="M 23.71875 21.328125 C 23.585938 22.757812 23.777344 24.199219 24.273438 25.546875 L 24.589844 25.738281 L 24.871094 25.546875 C 24.25 24.234375 24.015625 22.769531 24.195312 21.328125 Z M 23.71875 21.328125 "/>
<path style=" stroke:none;fill-rule:nonzero;fill:rgb(92.54902%,94.117647%,94.509804%);fill-opacity:1;" d="M 26.128906 20.359375 L 23.929688 22.140625 L 22.421875 20.628906 L 22.78125 20.078125 L 23.929688 21.308594 L 25.910156 19.609375 C 25.941406 19.660156 25.960938 19.714844 25.96875 19.769531 C 25.992188 19.84375 26 19.921875 26 20 C 26 19.988281 26.011719 19.988281 26.011719 19.980469 C 26.039062 19.921875 26.058594 19.851562 26.089844 19.78125 C 26.128906 19.980469 26.101562 20.21875 26.128906 20.359375 Z M 26.128906 20.359375 "/>
<path style=" stroke:none;fill-rule:nonzero;fill:rgb(0%,0%,0%);fill-opacity:1;" d="M 14.648438 26.398438 L 13.738281 26 L 11 20 L 19.589844 0 C 19.785156 0.804688 19.917969 1.625 19.988281 2.449219 L 19.480469 1.121094 L 12 20 Z M 14.648438 26.398438 "/>
<path style=" stroke:none;fill-rule:nonzero;fill:rgb(0%,0%,0%);fill-opacity:1;" d="M 20 33 L 20 41 L 14 27 L 14.878906 27 L 19.550781 38.941406 L 19.519531 32.820312 C 19.808594 32.941406 20 33 20 33 Z M 20 33 "/>
<path style=" stroke:none;fill-rule:nonzero;fill:rgb(0%,0%,0%);fill-opacity:1;" d="M 29.398438 2.300781 L 28.519531 1.21875 L 28.398438 2.109375 L 28.011719 2.449219 C 28.082031 1.625 28.214844 0.804688 28.410156 0 Z M 29.398438 2.300781 "/>
<path style=" stroke:none;fill-rule:nonzero;fill:rgb(0%,0%,0%);fill-opacity:1;" d="M 26.839844 25.019531 L 24.589844 26.566406 L 22.589844 25.289062 L 22.945312 24.738281 L 24.585938 25.738281 L 26.5 24.429688 C 26.660156 24.59375 26.777344 24.796875 26.839844 25.019531 Z M 26.839844 25.019531 "/>
<path style=" stroke:none;fill-rule:nonzero;fill:rgb(0%,0%,0%);fill-opacity:1;" d="M 32.050781 20.199219 C 32.136719 19.800781 32.117188 19.390625 32 19 C 31.179688 15.730469 31 13 29 16 C 28.996094 14.917969 29.347656 13.863281 30 13 L 29 4 C 29 4 28.621094 2.648438 28.011719 3.46875 C 27.570312 4.050781 27.441406 4.21875 27.398438 4.269531 C 27.46875 4.089844 28.101562 2.519531 28.710938 2.859375 C 29.351562 3.21875 29.53125 5.320312 29.53125 5.320312 L 30.417969 13.210938 C 30.011719 13.214844 29.484375 14.746094 29.484375 14.746094 C 29.484375 14.746094 30.660156 13.574219 31.199219 14.890625 C 31.535156 15.707031 32.710938 18.933594 32.050781 20.199219 Z M 32.050781 20.199219 "/>
<path style=" stroke:none;fill-rule:nonzero;fill:rgb(0%,0%,0%);fill-opacity:1;" d="M 37 20 L 28 41 L 28 33 C 28 33 28.191406 32.941406 28.46875 32.828125 L 28.46875 38.800781 L 36 20 Z M 37 20 "/>
<path style=" stroke:none;fill-rule:nonzero;fill:rgb(0%,0%,0%);fill-opacity:1;" d="M 21.828125 8.808594 C 21.675781 9.152344 21.714844 9.554688 21.929688 9.863281 C 21.707031 10.121094 21.527344 10.417969 21.402344 10.734375 C 21.023438 11.476562 22 12 22 12 C 22 12 20 12 21.46875 9.820312 C 21.46875 9.820312 21.058594 8.800781 21.671875 8.390625 C 22.285156 7.90625 22.53125 7.089844 22.28125 6.351562 C 22.078125 5.53125 21.980469 4.410156 23 4 C 22.75 4.289062 22.5625 4.621094 22.4375 4.980469 C 22.464844 5.757812 22.589844 6.53125 22.808594 7.277344 C 22.871094 7.820312 22.109375 8.308594 21.828125 8.808594 Z M 21.828125 8.808594 "/>
<path style=" stroke:none;fill-rule:nonzero;fill:rgb(0%,0%,0%);fill-opacity:1;" d="M 24 48 C 24 48 21 43 21 42 C 21 41 23 40 23 39 C 23 38.019531 22.039062 37.050781 22 35.128906 L 22 35 C 22 34.878906 22.011719 34.761719 22.019531 34.660156 C 22.210938 33.199219 23.578125 32.929688 23.921875 31.628906 C 23.941406 31.542969 23.960938 31.457031 23.96875 31.371094 C 23.992188 31.246094 24 31.125 24 31 C 24.078125 29.570312 23.714844 28.148438 22.960938 26.929688 C 22.773438 26.667969 22.554688 26.429688 22.308594 26.21875 C 22.226562 26.140625 22.132812 26.074219 22.03125 26.019531 C 22.019531 26.015625 22.007812 26.007812 22 26 L 23.660156 26 C 23.660156 26 24.925781 29.515625 24.496094 31.445312 C 24.066406 33.375 22.449219 33.429688 22.449219 35.148438 C 22.449219 36.871094 23.296875 37.425781 23.296875 38.980469 C 23.296875 40.269531 21.394531 40.925781 21.394531 42.15625 C 21.394531 43.386719 24 47.28125 24 47.28125 C 24 47.28125 27 43.789062 27 43.011719 L 27 43 C 28.410156 43 24 48 24 48 Z M 24 48 "/>
<path style=" stroke:none;fill-rule:nonzero;fill:rgb(0%,0%,0%);fill-opacity:1;" d="M 21.820312 16.671875 C 21.707031 17.402344 21.847656 18.148438 22.21875 18.789062 C 22.339844 19.070312 22.535156 19.3125 22.78125 19.488281 C 22.320312 22.429688 22.441406 23.910156 23.660156 26 L 22 26 C 21.75 25.003906 21.582031 23.988281 21.507812 22.964844 C 21.507812 21.925781 21.589844 20.769531 21.605469 20.265625 C 21.636719 19.515625 21.675781 19.242188 21.675781 19.242188 L 21.664062 19.234375 C 21.636719 19.144531 21.605469 19.054688 21.574219 18.953125 C 21.378906 18.398438 21.261719 17.820312 21.226562 17.234375 C 21.203125 17 21.207031 16.765625 21.234375 16.535156 L 21.234375 16.523438 C 21.238281 16.46875 21.246094 16.410156 21.257812 16.355469 C 21.527344 14.683594 23.507812 13.695312 25.136719 13.292969 C 26.765625 12.894531 26.976562 10.222656 25.136719 9.824219 C 24.765625 9.75 24.386719 9.738281 24.015625 9.792969 C 24.277344 9.695312 26.886719 9.132812 26.886719 11.664062 C 26.890625 14.449219 22.378906 13.699219 21.820312 16.671875 Z M 21.820312 16.671875 "/>
<path style=" stroke:none;fill-rule:nonzero;fill:rgb(92.54902%,94.117647%,94.509804%);fill-opacity:1;" d="M 29.398438 2.300781 L 36 20 L 37 20 Z M 29.398438 2.300781 "/>
<path style=" stroke:none;fill-rule:nonzero;fill:rgb(92.54902%,94.117647%,94.509804%);fill-opacity:1;" d="M 12 20 L 13.660156 20 L 19.011719 2.300781 Z M 12 20 "/>
<path style=" stroke:none;fill-rule:nonzero;fill:rgb(92.54902%,94.117647%,94.509804%);fill-opacity:1;" d="M 15.671875 26.851562 L 14.648438 26.398438 L 14.570312 26.359375 L 12 20 L 13.660156 20 Z M 15.671875 26.851562 "/>
<path style=" stroke:none;fill-rule:nonzero;fill:rgb(92.54902%,94.117647%,94.509804%);fill-opacity:1;" d="M 16.46875 31.070312 L 14.828125 27 L 15.691406 27 Z M 16.46875 31.070312 "/>
<path style=" stroke:none;fill-rule:nonzero;fill:rgb(92.54902%,94.117647%,94.509804%);fill-opacity:1;" d="M 25.941406 43.949219 L 24 46.148438 L 22.769531 44.109375 C 23.019531 44.582031 23.472656 44.910156 24 45 C 24.730469 44.835938 25.402344 44.472656 25.941406 43.949219 Z M 25.941406 43.949219 "/>
<path style=" stroke:none;fill-rule:nonzero;fill:rgb(92.54902%,94.117647%,94.509804%);fill-opacity:1;" d="M 26 28 C 26.101562 28.996094 26.101562 30.003906 26 31 C 26 31.214844 25.960938 31.425781 25.890625 31.628906 C 25.53125 32.75 24.238281 33.519531 23.519531 34.191406 C 26.089844 31.5 25.210938 29.078125 25.421875 27.800781 C 25.625 26.984375 26.210938 26.320312 26.988281 26.011719 C 26.449219 26.542969 26.097656 27.246094 26 28 Z M 26 28 "/>
<path style=" stroke:none;fill-rule:nonzero;fill:rgb(92.54902%,94.117647%,94.509804%);fill-opacity:1;" d="M 27 26 L 26.988281 26.011719 C 26.855469 26.152344 26.730469 26.300781 26.621094 26.460938 C 26.472656 26.550781 26.300781 26.585938 26.128906 26.558594 C 26.988281 24.601562 26 20 26 20 C 26 20 26.71875 20.621094 27.140625 23.730469 C 27.304688 24.484375 27.253906 25.269531 27 26 Z M 27 26 "/>
<path style=" stroke:none;fill-rule:nonzero;fill:rgb(92.54902%,94.117647%,94.509804%);fill-opacity:1;" d="M 29.769531 25.25 C 29.425781 25.398438 29.121094 25.625 28.878906 25.910156 C 28.421875 26.089844 28 26.621094 28 28 L 27.980469 27.980469 C 27.441406 27.230469 27.570312 26.191406 28.28125 25.601562 C 29.539062 24.660156 31.578125 23.820312 31.578125 20.859375 C 31.578125 20.859375 32.191406 24.199219 29.769531 25.25 Z M 29.769531 25.25 "/>
<path style=" stroke:none;fill-rule:nonzero;fill:rgb(92.54902%,94.117647%,94.509804%);fill-opacity:1;" d="M 26.101562 14.039062 L 26.089844 14.039062 C 26.980469 13.375 27.472656 12.300781 27.398438 11.191406 C 27.457031 10.210938 26.902344 9.296875 26.011719 8.890625 C 26.925781 9.101562 27.601562 9.875 27.691406 10.8125 C 28.019531 12.132812 27.347656 13.496094 26.101562 14.039062 Z M 26.101562 14.039062 "/>
<path style=" stroke:none;fill-rule:nonzero;fill:rgb(92.54902%,94.117647%,94.509804%);fill-opacity:1;" d="M 20 33 L 20 33.660156 L 19.988281 33.660156 C 18.445312 33.4375 17.242188 32.210938 17.050781 30.660156 C 17.464844 31.613281 18.257812 32.355469 19.238281 32.699219 C 19.332031 32.746094 19.425781 32.785156 19.519531 32.820312 C 19.808594 32.941406 20 33 20 33 Z M 20 33 "/>
<path style=" stroke:none;fill-rule:nonzero;fill:rgb(92.54902%,94.117647%,94.509804%);fill-opacity:1;" d="M 29.304688 4 L 34.253906 20 L 33.285156 20 Z M 29.304688 4 "/>
<path style=" stroke:none;fill-rule:nonzero;fill:rgb(0%,0%,0%);fill-opacity:1;" d="M 18.988281 15.980469 C 17 13.011719 16.820312 15.738281 16 19 C 15.945312 19.210938 15.910156 19.425781 15.898438 19.640625 C 15.898438 19.640625 15.96875 14.398438 17.25 13.949219 C 18.460938 13.53125 18.941406 15.71875 18.988281 15.980469 Z M 18.988281 15.980469 "/>
<path style=" stroke:none;fill-rule:nonzero;fill:rgb(20%,20%,20%);fill-opacity:1;" d="M 16.109375 20.539062 C 16.101562 20.550781 16.101562 20.550781 16.109375 20.558594 C 16.105469 20.558594 16.101562 20.554688 16.101562 20.550781 Z M 16.109375 20.539062 "/>
<path style=" stroke:none;fill-rule:nonzero;fill:rgb(0%,0%,0%);fill-opacity:1;" d="M 19.5 20.964844 C 19 21.375 18.359375 21.5625 17.71875 21.484375 C 17.078125 21.410156 16.496094 21.074219 16.109375 20.558594 C 16.859375 21.671875 19.398438 20.699219 19.570312 20.21875 C 19.96875 19.078125 18.257812 18.140625 18.027344 18.011719 C 18.160156 17.949219 21.273438 19.460938 19.5 20.964844 Z M 19.5 20.964844 "/>
<path style=" stroke:none;fill-rule:nonzero;fill:rgb(0%,0%,0%);fill-opacity:1;" d="M 21.011719 27.988281 L 21 28 C 21 25.148438 19.199219 25.910156 19.011719 25.988281 C 19.148438 25.851562 20.300781 24.738281 21 25.71875 C 21.421875 26.417969 21.425781 27.289062 21.011719 27.988281 Z M 21.011719 27.988281 "/>
<path style=" stroke:none;fill-rule:nonzero;fill:rgb(0%,0%,0%);fill-opacity:1;" d="M 21.601562 20.488281 C 21.601562 20.488281 21.390625 20.011719 21.199219 20.019531 C 21.203125 19.667969 21.136719 19.324219 21 19 C 21.425781 19.375 21.648438 19.925781 21.601562 20.488281 Z M 21.601562 20.488281 "/>
<path style=" stroke:none;fill-rule:nonzero;fill:rgb(0%,0%,0%);fill-opacity:1;" d="M 27 19 L 26.988281 19.019531 C 26.453125 19.382812 26.214844 20.050781 26.398438 20.671875 L 26.308594 20.539062 L 26 20 C 26 19.988281 26.011719 19.988281 26.011719 19.980469 C 26.171875 19.609375 26.25 19.160156 26.941406 19.019531 C 26.960938 19.015625 26.980469 19.007812 27 19 Z M 27 19 "/>
<path style=" stroke:none;fill-rule:nonzero;fill:rgb(0%,0%,0%);fill-opacity:1;" d="M 29.980469 18 L 29.980469 18.011719 C 29.96875 18.019531 29.949219 18.019531 29.929688 18.03125 C 28.121094 18.550781 26.863281 20.195312 26.839844 22.078125 L 26.558594 21.210938 L 26.429688 20.78125 L 26.398438 20.671875 L 26.800781 20.019531 L 26.808594 20 C 26.859375 19.921875 26.914062 19.84375 26.96875 19.769531 C 27.1875 19.46875 27.441406 19.195312 27.71875 18.949219 C 27.863281 18.824219 28.011719 18.707031 28.171875 18.601562 C 28.238281 18.554688 28.308594 18.507812 28.378906 18.46875 C 28.484375 18.40625 28.589844 18.351562 28.699219 18.300781 C 28.792969 18.25 28.890625 18.210938 28.988281 18.179688 C 29.1875 18.113281 29.394531 18.0625 29.601562 18.03125 C 29.621094 18.03125 29.628906 18.019531 29.648438 18.019531 C 29.75 18.011719 29.851562 18 29.949219 18 Z M 29.980469 18 "/>
<path style=" stroke:none;fill-rule:nonzero;fill:rgb(0%,0%,0%);fill-opacity:1;" d="M 30 18 C 29.992188 18 29.984375 18.003906 29.980469 18.011719 L 29.980469 18 Z M 30 18 "/>
<path style=" stroke:none;fill-rule:nonzero;fill:rgb(92.54902%,94.117647%,94.509804%);fill-opacity:1;" d="M 26.800781 20.019531 L 26.398438 20.671875 C 26.214844 20.050781 26.453125 19.382812 26.988281 19.019531 C 26.859375 19.335938 26.796875 19.675781 26.800781 20.019531 Z M 26.800781 20.019531 "/>
<path style=" stroke:none;fill-rule:nonzero;fill:rgb(0%,0%,0%);fill-opacity:1;" d="M 25.96875 19.769531 L 23.933594 21.539062 L 22.421875 20.039062 L 22.78125 19.492188 L 23.933594 20.710938 L 25.632812 19.179688 C 25.792969 19.347656 25.910156 19.546875 25.96875 19.769531 Z M 25.96875 19.769531 "/>
<path style=" stroke:none;fill-rule:nonzero;fill:rgb(92.54902%,94.117647%,94.509804%);fill-opacity:1;" d="M 29.929688 18.03125 C 29.628906 18.199219 28.339844 18.960938 28.371094 19.898438 C 27.585938 21.277344 27.1875 22.84375 27.21875 24.429688 L 26.5 21.328125 L 26.558594 21.210938 L 26.839844 22.078125 C 26.863281 20.195312 28.121094 18.550781 29.929688 18.03125 Z M 29.929688 18.03125 "/>
</g>
</svg>
